PathFileType	4	(X/Y/Z)	14_coords_data.trc
DataRate	CameraRate	NumFrames	NumMarkers	Units	OrigDataRate	OrigDataStartFrame	OrigNumFrames
30.0	30.0	6	21	m	30.0	1	68
Frame#	Time	THUMB_TIP	THUMB_IP	THUMB_MCP	THUMB_CMC	INDEX_TIP	INDEX_DIP	INDEX_PIP	INDEX_MCP	MIDDLE_TIP	MIDDLE_DIP	MIDDLE_PIP	MIDDLE_MCP	RING_TIP	RING_DIP	RING_PIP	RING_MCP	PINKY_TIP	PINKY_DIP	PINKY_PIP	PINKY_MCP	WRIST
X1	Y1	Z1	X2	Y2	Z2	X3	Y3	Z3	X4	Y4	Z4	X5	Y5	Z5	X6	Y6	Z6	X7	Y7	Z7	X8	Y8	Z8	X9	Y9	Z9	X10	Y10	Z10	X11	Y11	Z11	X12	Y12	Z12	X13	Y13	Z13	X14	Y14	Z14	X15	Y15	Z15	X16	Y16	Z16	X17	Y17	Z17	X18	Y18	Z18	X19	Y19	Z19	X20	Y20	Z20	X21	Y21	Z21
0	0.0	0.048509700775146485	0.025383399963378905	0.94160302734375	0.027322799682617187	0.025477399826049806	0.9605250244140625	0.011248200416564942	0.019158300399780274	0.984530029296875	-0.012671600341796875	0.03458980178833008	0.999	0.04375429916381836	0.03383269882202149	0.909405029296875	0.029926700592041014	0.017536100387573243	0.9112130126953125	0.012731499671936035	0.0046784400939941405	0.9229340209960938	-0.008644000053405761	-0.006189249992370606	0.9506719970703125	0.040628898620605466	0.05438140106201172	0.9033809814453125	0.025083700180053712	0.03998080062866211	0.9038679809570312	0.002615180015563965	0.02497610092163086	0.91177197265625	-0.02844650077819824	0.007857289791107178	0.9397009887695312	0.03012030029296875	0.07001080322265625	0.9106929931640625	0.011264599800109864	0.05926160049438477	0.9110659790039063	-0.011446299552917481	0.04596279907226562	0.9148980102539063	-0.03971379852294922	0.027810100555419923	0.9357659912109375	0.00379350996017456	0.08144409942626953	0.9188159790039062	-0.012484299659729003	0.0715260009765625	0.9212589721679687	-0.026664899826049804	0.062077999114990234	0.9254959716796874	-0.045426498413085936	0.04853760147094727	0.9388740234375	-0.04799309921264648	0.03820819854736328	1.014010009765625
1	0.03333333333333333	0.0479010009765625	0.026873600006103514	0.9414439697265625	0.02791029930114746	0.026018299102783204	0.9588920288085937	0.011988100051879882	0.020995100021362303	0.983083984375	-0.013304400444030761	0.03508980178833008	0.997239013671875	0.043936599731445314	0.03380160140991211	0.9096539916992188	0.030065900802612306	0.018518899917602537	0.9136909790039063	0.013353899955749511	0.004625929832458496	0.9232899780273438	-0.00969561004638672	-0.005187769889831543	0.9516510009765625	0.040957000732421874	0.05409909820556641	0.903572021484375	0.023691299438476563	0.04108240127563476	0.9063900146484375	0.001848639965057373	0.024759700775146484	0.9134559936523438	-0.028208900451660156	0.008645310401916503	0.93956201171875	0.02858740043640137	0.06970449829101563	0.912093994140625	0.010599300384521485	0.05848220062255859	0.9126810302734375	-0.011486000061035156	0.044818199157714844	0.9166209716796875	-0.03863940048217773	0.02850779914855957	0.9367260131835937	0.002549639940261841	0.08091649627685547	0.9195280151367188	-0.012735099792480468	0.07152290344238281	0.9217990112304687	-0.0275492000579834	0.0617244987487793	0.9266749877929688	-0.045749099731445315	0.04730329895019531	0.9410289916992187	-0.048223098754882815	0.037681900024414065	1.01152001953125
2	0.06666666666666667	0.047785598754882815	0.02763559913635254	0.9411320190429687	0.027766099929809572	0.026341699600219728	0.9588159790039062	0.011768500328063964	0.021498899459838867	0.9827340087890625	-0.013663999557495117	0.03527019882202148	0.9971320190429688	0.04388769912719727	0.03391500091552734	0.9097559814453124	0.029945199966430663	0.018621200561523436	0.9138729858398438	0.013285300254821778	0.004676919937133789	0.923302001953125	-0.009719820022583007	-0.005105410099029541	0.9517000122070313	0.04087969970703125	0.054119998931884766	0.903833984375	0.02358810043334961	0.04111190032958984	0.90656298828125	0.0017914700508117672	0.0248085994720459	0.9136099853515625	-0.028204399108886717	0.008675510406494141	0.939666015625	0.028521099090576173	0.06974240112304687	0.9122880249023437	0.010534299850463866	0.05851490020751953	0.912843017578125	-0.011592599868774414	0.04483399963378906	0.9167930297851562	-0.03884099960327148	0.028489599227905272	0.9367059936523437	0.0024620099067687987	0.08093049621582031	0.9195609741210937	-0.01281980037689209	0.0715457000732422	0.9218489990234375	-0.02765399932861328	0.06173989868164063	0.9267540283203125	-0.0458468017578125	0.047327098846435545	0.9410770263671875	-0.04799100112915039	0.03790719985961914	1.0116300048828124
3	0.1	0.04742490005493164	0.028533199310302734	0.9417069702148437	0.027574199676513672	0.02710490036010742	0.9587169799804688	0.011807600021362304	0.022005699157714845	0.982989013671875	-0.013707200050354003	0.03573590087890625	0.997281982421875	0.0438213996887207	0.034012901306152345	0.9097139892578125	0.02999810028076172	0.018736200332641603	0.9137869873046875	0.013260000228881836	0.0048411102294921874	0.9234340209960937	-0.009720040321350097	-0.004886199951171875	0.951875	0.040833999633789066	0.05428099822998047	0.9037650146484375	0.02349570083618164	0.04119219970703125	0.9065040283203125	0.001632230043411254	0.024909999847412108	0.9137030029296875	-0.028277599334716796	0.008871129989624024	0.9397969970703125	0.02851129913330078	0.06996040344238282	0.912625	0.01045359992980957	0.05871689987182617	0.912968017578125	-0.01166409969329834	0.04502159881591797	0.9168729858398438	-0.03891859817504883	0.02866360092163086	0.9369860229492187	0.00238233995437622	0.08113870239257813	0.919718017578125	-0.01291219997406006	0.071768798828125	0.922	-0.027714500427246092	0.06195180130004883	0.926916015625	-0.04596089935302734	0.04745550155639648	0.9411909790039062	-0.04825149917602539	0.0380796012878418	1.0118599853515624
4	0.13333333333333333	0.047450000762939454	0.029104999542236328	0.9413660278320313	0.027504499435424806	0.027710500717163085	0.9587230224609375	0.011655500411987305	0.02244219970703125	0.9827160034179687	-0.013765600204467774	0.0361067008972168	0.997322998046875	0.043843700408935544	0.0341338996887207	0.9100670166015625	0.02995229911804199	0.018902099609375	0.9141729736328125	0.013257200241088868	0.004981190204620361	0.9236530151367187	-0.00986178970336914	-0.0046696200370788575	0.9520549926757812	0.04086410140991211	0.05426380157470703	0.9039099731445313	0.023485300064086913	0.041244899749755856	0.9067119750976562	0.0016620099544525143	0.024993200302124024	0.9141019897460938	-0.028525100708007813	0.009054519653320313	0.94	0.028396799087524415	0.07002799987792968	0.9126099853515625	0.010442099571228027	0.05880849838256836	0.91310302734375	-0.01167300033569336	0.04517129898071289	0.9170120239257813	-0.039004398345947267	0.028801500320434572	0.9368460083007812	0.00235558009147644	0.08126499938964844	0.9198599853515625	-0.012944399833679199	0.07189849853515624	0.9221129760742187	-0.027753700256347658	0.06212590026855469	0.9270079956054688	-0.0460181999206543	0.047622501373291014	0.9414199829101563	-0.048487701416015626	0.03828210067749024	1.0119099731445313
5	0.16666666666666666	0.04703810119628906	0.03016729927062988	0.9419240112304688	0.027174999237060547	0.028325899124145508	0.9586909790039062	0.011450400352478027	0.022866199493408203	0.9827639770507812	-0.013324199676513672	0.036027999877929685	0.9971209716796875	0.043760101318359376	0.034291801452636717	0.9102529907226562	0.02983609962463379	0.0190393009185791	0.914427001953125	0.013134499549865723	0.005146840095520019	0.9237880249023438	-0.010029600143432618	-0.004508900165557861	0.952239013671875	0.040722198486328125	0.05423400115966797	0.903791015625	0.023315500259399415	0.04125	0.9069130249023437	0.001400609970092773	0.02507670021057129	0.9140040283203125	-0.028621700286865233	0.009217490196228027	0.940260009765625	0.028536699295043946	0.07007649993896484	0.9129600219726562	0.010380800247192384	0.05890549850463867	0.9132579956054687	-0.01182409954071045	0.04527080154418945	0.9171589965820313	-0.03914619827270508	0.029087799072265625	0.9374210205078125	0.0023579599857330323	0.081402099609375	0.9200789794921875	-0.012939100265502929	0.07206739807128906	0.9222919921875	-0.027809499740600586	0.06228310012817383	0.9272150268554687	-0.046069499969482425	0.04788199996948242	0.9415020141601562	-0.048349998474121095	0.03846269989013672	1.0118499755859376
